<svg width="1173.7" height="652.3000000000001" xmlns="http://www.w3.org/2000/svg" xmlns:xlink="http://www.w3.org/1999/xlink"><line x1="498.625" y1="7.5" x2="473.125" y2="32.0" style="stroke:black; stroke-width:1px;" />
<line x1="473.125" y1="39.5" x2="26.25" y2="64.0" style="stroke:black; stroke-width:1px;" />
<line x1="473.125" y1="39.5" x2="77.25" y2="64.0" style="stroke:black; stroke-width:1px;" />
<line x1="473.125" y1="39.5" x2="116.75" y2="64.0" style="stroke:black; stroke-width:1px;" />
<line x1="473.125" y1="39.5" x2="147.25" y2="64.0" style="stroke:black; stroke-width:1px;" />
<line x1="147.25" y1="71.5" x2="147.25" y2="96.0" style="stroke:black; stroke-width:1px;" />
<line x1="147.25" y1="103.5" x2="30.5" y2="128.0" style="stroke:black; stroke-width:1px;" />
<line x1="147.25" y1="103.5" x2="72.0" y2="128.0" style="stroke:black; stroke-width:1px;" />
<line x1="147.25" y1="103.5" x2="121.0" y2="128.0" style="stroke:black; stroke-width:1px;" />
<line x1="121.0" y1="135.5" x2="85.25" y2="160.0" style="stroke:black; stroke-width:1px;" />
<line x1="121.0" y1="135.5" x2="110.75" y2="160.0" style="stroke:black; stroke-width:1px;" />
<line x1="121.0" y1="135.5" x2="133.75" y2="160.0" style="stroke:black; stroke-width:1px;" />
<line x1="133.75" y1="167.5" x2="133.75" y2="192.0" style="stroke:black; stroke-width:1px;" />
<line x1="121.0" y1="135.5" x2="156.75" y2="160.0" style="stroke:black; stroke-width:1px;" />
<line x1="147.25" y1="103.5" x2="215.0" y2="128.0" style="stroke:black; stroke-width:1px;" />
<line x1="215.0" y1="135.5" x2="180.25" y2="160.0" style="stroke:black; stroke-width:1px;" />
<line x1="215.0" y1="135.5" x2="203.75" y2="160.0" style="stroke:black; stroke-width:1px;" />
<line x1="215.0" y1="135.5" x2="226.75" y2="160.0" style="stroke:black; stroke-width:1px;" />
<line x1="226.75" y1="167.5" x2="226.75" y2="192.0" style="stroke:black; stroke-width:1px;" />
<line x1="215.0" y1="135.5" x2="249.75" y2="160.0" style="stroke:black; stroke-width:1px;" />
<line x1="147.25" y1="103.5" x2="264.0" y2="128.0" style="stroke:black; stroke-width:1px;" />
<line x1="473.125" y1="39.5" x2="340.75" y2="64.0" style="stroke:black; stroke-width:1px;" />
<line x1="340.75" y1="71.5" x2="340.75" y2="96.0" style="stroke:black; stroke-width:1px;" />
<line x1="340.75" y1="103.5" x2="292.75" y2="128.0" style="stroke:black; stroke-width:1px;" />
<line x1="340.75" y1="103.5" x2="317.75" y2="128.0" style="stroke:black; stroke-width:1px;" />
<line x1="340.75" y1="103.5" x2="353.25" y2="128.0" style="stroke:black; stroke-width:1px;" />
<line x1="353.25" y1="135.5" x2="285.75" y2="160.0" style="stroke:black; stroke-width:1px;" />
<line x1="353.25" y1="135.5" x2="321.75" y2="160.0" style="stroke:black; stroke-width:1px;" />
<line x1="353.25" y1="135.5" x2="344.75" y2="160.0" style="stroke:black; stroke-width:1px;" />
<line x1="344.75" y1="167.5" x2="344.75" y2="192.0" style="stroke:black; stroke-width:1px;" />
<line x1="353.25" y1="135.5" x2="369.25" y2="160.0" style="stroke:black; stroke-width:1px;" />
<line x1="353.25" y1="135.5" x2="395.75" y2="160.0" style="stroke:black; stroke-width:1px;" />
<line x1="395.75" y1="167.5" x2="395.75" y2="192.0" style="stroke:black; stroke-width:1px;" />
<line x1="353.25" y1="135.5" x2="420.75" y2="160.0" style="stroke:black; stroke-width:1px;" />
<line x1="340.75" y1="103.5" x2="388.75" y2="128.0" style="stroke:black; stroke-width:1px;" />
<line x1="473.125" y1="39.5" x2="547.5" y2="64.0" style="stroke:black; stroke-width:1px;" />
<line x1="547.5" y1="71.5" x2="547.5" y2="96.0" style="stroke:black; stroke-width:1px;" />
<line x1="547.5" y1="103.5" x2="431.25" y2="128.0" style="stroke:black; stroke-width:1px;" />
<line x1="547.5" y1="103.5" x2="461.75" y2="128.0" style="stroke:black; stroke-width:1px;" />
<line x1="547.5" y1="103.5" x2="499.75" y2="128.0" style="stroke:black; stroke-width:1px;" />
<line x1="499.75" y1="135.5" x2="447.75" y2="160.0" style="stroke:black; stroke-width:1px;" />
<line x1="499.75" y1="135.5" x2="491.25" y2="160.0" style="stroke:black; stroke-width:1px;" />
<line x1="499.75" y1="135.5" x2="522.25" y2="160.0" style="stroke:black; stroke-width:1px;" />
<line x1="499.75" y1="135.5" x2="537.25" y2="160.0" style="stroke:black; stroke-width:1px;" />
<line x1="499.75" y1="135.5" x2="551.75" y2="160.0" style="stroke:black; stroke-width:1px;" />
<line x1="547.5" y1="103.5" x2="625.75" y2="128.0" style="stroke:black; stroke-width:1px;" />
<line x1="625.75" y1="135.5" x2="578.75" y2="160.0" style="stroke:black; stroke-width:1px;" />
<line x1="625.75" y1="135.5" x2="617.25" y2="160.0" style="stroke:black; stroke-width:1px;" />
<line x1="625.75" y1="135.5" x2="643.25" y2="160.0" style="stroke:black; stroke-width:1px;" />
<line x1="625.75" y1="135.5" x2="658.25" y2="160.0" style="stroke:black; stroke-width:1px;" />
<line x1="625.75" y1="135.5" x2="672.75" y2="160.0" style="stroke:black; stroke-width:1px;" />
<line x1="547.5" y1="103.5" x2="663.75" y2="128.0" style="stroke:black; stroke-width:1px;" />
<line x1="473.125" y1="39.5" x2="889.5" y2="64.0" style="stroke:black; stroke-width:1px;" />
<line x1="889.5" y1="71.5" x2="889.5" y2="96.0" style="stroke:black; stroke-width:1px;" />
<line x1="889.5" y1="103.5" x2="722.5" y2="128.0" style="stroke:black; stroke-width:1px;" />
<line x1="889.5" y1="103.5" x2="756.5" y2="128.0" style="stroke:black; stroke-width:1px;" />
<line x1="889.5" y1="103.5" x2="789.0" y2="128.0" style="stroke:black; stroke-width:1px;" />
<line x1="789.0" y1="135.5" x2="688.25" y2="160.0" style="stroke:black; stroke-width:1px;" />
<line x1="789.0" y1="135.5" x2="723.75" y2="160.0" style="stroke:black; stroke-width:1px;" />
<line x1="723.75" y1="167.5" x2="636.25" y2="192.0" style="stroke:black; stroke-width:1px;" />
<line x1="636.25" y1="199.5" x2="636.25" y2="224.0" style="stroke:black; stroke-width:1px;" />
<line x1="723.75" y1="167.5" x2="723.75" y2="192.0" style="stroke:black; stroke-width:1px;" />
<line x1="723.75" y1="199.5" x2="723.75" y2="224.0" style="stroke:black; stroke-width:1px;" />
<line x1="723.75" y1="167.5" x2="811.25" y2="192.0" style="stroke:black; stroke-width:1px;" />
<line x1="811.25" y1="199.5" x2="811.25" y2="224.0" style="stroke:black; stroke-width:1px;" />
<line x1="811.25" y1="231.5" x2="811.25" y2="256.0" style="stroke:black; stroke-width:1px;" />
<line x1="789.0" y1="135.5" x2="766.75" y2="160.0" style="stroke:black; stroke-width:1px;" />
<line x1="789.0" y1="135.5" x2="794.25" y2="160.0" style="stroke:black; stroke-width:1px;" />
<line x1="789.0" y1="135.5" x2="829.25" y2="160.0" style="stroke:black; stroke-width:1px;" />
<line x1="789.0" y1="135.5" x2="860.25" y2="160.0" style="stroke:black; stroke-width:1px;" />
<line x1="789.0" y1="135.5" x2="875.25" y2="160.0" style="stroke:black; stroke-width:1px;" />
<line x1="789.0" y1="135.5" x2="889.75" y2="160.0" style="stroke:black; stroke-width:1px;" />
<line x1="889.5" y1="103.5" x2="1024.0" y2="128.0" style="stroke:black; stroke-width:1px;" />
<line x1="1024.0" y1="135.5" x2="928.25" y2="160.0" style="stroke:black; stroke-width:1px;" />
<line x1="1024.0" y1="135.5" x2="963.75" y2="160.0" style="stroke:black; stroke-width:1px;" />
<line x1="963.75" y1="167.5" x2="876.25" y2="192.0" style="stroke:black; stroke-width:1px;" />
<line x1="876.25" y1="199.5" x2="876.25" y2="224.0" style="stroke:black; stroke-width:1px;" />
<line x1="963.75" y1="167.5" x2="963.75" y2="192.0" style="stroke:black; stroke-width:1px;" />
<line x1="963.75" y1="199.5" x2="963.75" y2="224.0" style="stroke:black; stroke-width:1px;" />
<line x1="963.75" y1="167.5" x2="1051.25" y2="192.0" style="stroke:black; stroke-width:1px;" />
<line x1="1051.25" y1="199.5" x2="1051.25" y2="224.0" style="stroke:black; stroke-width:1px;" />
<line x1="1051.25" y1="231.5" x2="1051.25" y2="256.0" style="stroke:black; stroke-width:1px;" />
<line x1="1024.0" y1="135.5" x2="1006.75" y2="160.0" style="stroke:black; stroke-width:1px;" />
<line x1="1024.0" y1="135.5" x2="1034.25" y2="160.0" style="stroke:black; stroke-width:1px;" />
<line x1="1024.0" y1="135.5" x2="1064.25" y2="160.0" style="stroke:black; stroke-width:1px;" />
<line x1="1024.0" y1="135.5" x2="1090.25" y2="160.0" style="stroke:black; stroke-width:1px;" />
<line x1="1024.0" y1="135.5" x2="1105.25" y2="160.0" style="stroke:black; stroke-width:1px;" />
<line x1="1024.0" y1="135.5" x2="1119.75" y2="160.0" style="stroke:black; stroke-width:1px;" />
<line x1="889.5" y1="103.5" x2="1056.5" y2="128.0" style="stroke:black; stroke-width:1px;" />
<line x1="473.125" y1="39.5" x2="920.0" y2="64.0" style="stroke:black; stroke-width:1px;" />
<line x1="498.625" y1="7.5" x2="524.125" y2="32.0" style="stroke:black; stroke-width:1px;" />
<rect x="598.25" y="128.0" width="55.0" height="15.0" style="fill:orange; stroke:rgb(0,0,0);" rx="1"/>
<text x="600" y="137" style="font-family:sans-serif;font-size:10px;">
actionDecl
</text>
<rect x="916.0" y="64.0" width="8.0" height="15.0" style="fill:orange; stroke:rgb(0,0,0);" rx="1"/>
<text x="918" y="73" style="font-family:sans-serif;font-size:10px;">
}
</text>
<rect x="431.25" y="160.0" width="33.0" height="15.0" style="fill:orange; stroke:rgb(0,0,0);" rx="1"/>
<text x="433" y="169" style="font-family:sans-serif;font-size:10px;">
action
</text>
<rect x="107.25" y="160.0" width="7.0" height="15.0" style="fill:orange; stroke:rgb(0,0,0);" rx="1"/>
<text x="109" y="169" style="font-family:sans-serif;font-size:10px;">
:
</text>
<rect x="871.25" y="160.0" width="8.0" height="15.0" style="fill:orange; stroke:rgb(0,0,0);" rx="1"/>
<text x="873" y="169" style="font-family:sans-serif;font-size:10px;">
)
</text>
<rect x="562.25" y="160.0" width="33.0" height="15.0" style="fill:orange; stroke:rgb(0,0,0);" rx="1"/>
<text x="564" y="169" style="font-family:sans-serif;font-size:10px;">
action
</text>
<rect x="1101.25" y="160.0" width="8.0" height="15.0" style="fill:orange; stroke:rgb(0,0,0);" rx="1"/>
<text x="1103" y="169" style="font-family:sans-serif;font-size:10px;">
)
</text>
<rect x="912.25" y="192.0" width="103.0" height="15.0" style="fill:orange; stroke:rgb(0,0,0);" rx="1"/>
<text x="914" y="201" style="font-family:sans-serif;font-size:10px;">
comparisonOperator
</text>
<rect x="260.0" y="128.0" width="8.0" height="15.0" style="fill:orange; stroke:rgb(0,0,0);" rx="1"/>
<text x="262" y="137" style="font-family:sans-serif;font-size:10px;">
}
</text>
<rect x="363.75" y="160.0" width="11.0" height="15.0" style="fill:orange; stroke:rgb(0,0,0);" rx="1"/>
<text x="365" y="169" style="font-family:sans-serif;font-size:10px;">
=
</text>
<rect x="683.25" y="160.0" width="10.0" height="15.0" style="fill:orange; stroke:rgb(0,0,0);" rx="1"/>
<text x="685" y="169" style="font-family:sans-serif;font-size:10px;">
if
</text>
<rect x="518.25" y="160.0" width="8.0" height="15.0" style="fill:orange; stroke:rgb(0,0,0);" rx="1"/>
<text x="520" y="169" style="font-family:sans-serif;font-size:10px;">
(
</text>
<rect x="1049.75" y="160.0" width="29.0" height="15.0" style="fill:orange; stroke:rgb(0,0,0);" rx="1"/>
<text x="1051" y="169" style="font-family:sans-serif;font-size:10px;">
close
</text>
<rect x="1023.25" y="192.0" width="56.0" height="15.0" style="fill:orange; stroke:rgb(0,0,0);" rx="1"/>
<text x="1025" y="201" style="font-family:sans-serif;font-size:10px;">
expression
</text>
<rect x="321.25" y="64.0" width="39.0" height="15.0" style="fill:orange; stroke:rgb(0,0,0);" rx="1"/>
<text x="323" y="73" style="font-family:sans-serif;font-size:10px;">
section
</text>
<rect x="848.5" y="96.0" width="82.0" height="15.0" style="fill:orange; stroke:rgb(0,0,0);" rx="1"/>
<text x="850" y="105" style="font-family:sans-serif;font-size:10px;">
behaviorSection
</text>
<rect x="621.75" y="224.0" width="29.0" height="15.0" style="fill:orange; stroke:rgb(0,0,0);" rx="1"/>
<text x="623" y="233" style="font-family:sans-serif;font-size:10px;">
stock
</text>
<rect x="127.75" y="64.0" width="39.0" height="15.0" style="fill:orange; stroke:rgb(0,0,0);" rx="1"/>
<text x="129" y="73" style="font-family:sans-serif;font-size:10px;">
section
</text>
<rect x="994.25" y="160.0" width="25.0" height="15.0" style="fill:orange; stroke:rgb(0,0,0);" rx="1"/>
<text x="996" y="169" style="font-family:sans-serif;font-size:10px;">
then
</text>
<rect x="783.25" y="192.0" width="56.0" height="15.0" style="fill:orange; stroke:rgb(0,0,0);" rx="1"/>
<text x="785" y="201" style="font-family:sans-serif;font-size:10px;">
expression
</text>
<rect x="1036.75" y="224.0" width="29.0" height="15.0" style="fill:orange; stroke:rgb(0,0,0);" rx="1"/>
<text x="1038" y="233" style="font-family:sans-serif;font-size:10px;">
literal
</text>
<rect x="167.25" y="160.0" width="26.0" height="15.0" style="fill:orange; stroke:rgb(0,0,0);" rx="1"/>
<text x="169" y="169" style="font-family:sans-serif;font-size:10px;">
hora
</text>
<rect x="384.75" y="128.0" width="8.0" height="15.0" style="fill:orange; stroke:rgb(0,0,0);" rx="1"/>
<text x="386" y="137" style="font-family:sans-serif;font-size:10px;">
}
</text>
<rect x="608.25" y="192.0" width="56.0" height="15.0" style="fill:orange; stroke:rgb(0,0,0);" rx="1"/>
<text x="610" y="201" style="font-family:sans-serif;font-size:10px;">
expression
</text>
<rect x="457.75" y="128.0" width="8.0" height="15.0" style="fill:orange; stroke:rgb(0,0,0);" rx="1"/>
<text x="459" y="137" style="font-family:sans-serif;font-size:10px;">
{
</text>
<rect x="809.75" y="160.0" width="39.0" height="15.0" style="fill:orange; stroke:rgb(0,0,0);" rx="1"/>
<text x="811" y="169" style="font-family:sans-serif;font-size:10px;">
restock
</text>
<rect x="318.25" y="160.0" width="7.0" height="15.0" style="fill:orange; stroke:rgb(0,0,0);" rx="1"/>
<text x="320" y="169" style="font-family:sans-serif;font-size:10px;">
:
</text>
<rect x="672.25" y="192.0" width="103.0" height="15.0" style="fill:orange; stroke:rgb(0,0,0);" rx="1"/>
<text x="674" y="201" style="font-family:sans-serif;font-size:10px;">
comparisonOperator
</text>
<rect x="602.75" y="160.0" width="29.0" height="15.0" style="fill:orange; stroke:rgb(0,0,0);" rx="1"/>
<text x="604" y="169" style="font-family:sans-serif;font-size:10px;">
close
</text>
<rect x="848.25" y="192.0" width="56.0" height="15.0" style="fill:orange; stroke:rgb(0,0,0);" rx="1"/>
<text x="850" y="201" style="font-family:sans-serif;font-size:10px;">
expression
</text>
<rect x="754.25" y="160.0" width="25.0" height="15.0" style="fill:orange; stroke:rgb(0,0,0);" rx="1"/>
<text x="756" y="169" style="font-family:sans-serif;font-size:10px;">
then
</text>
<rect x="48.75" y="64.0" width="57.0" height="15.0" style="fill:orange; stroke:rgb(0,0,0);" rx="1"/>
<text x="50" y="73" style="font-family:sans-serif;font-size:10px;">
Bodeguero
</text>
<rect x="390.75" y="192.0" width="10.0" height="15.0" style="fill:orange; stroke:rgb(0,0,0);" rx="1"/>
<text x="392" y="201" style="font-family:sans-serif;font-size:10px;">
0
</text>
<rect x="939.75" y="160.0" width="48.0" height="15.0" style="fill:orange; stroke:rgb(0,0,0);" rx="1"/>
<text x="941" y="169" style="font-family:sans-serif;font-size:10px;">
condition
</text>
<rect x="261.25" y="160.0" width="49.0" height="15.0" style="fill:orange; stroke:rgb(0,0,0);" rx="1"/>
<text x="263" y="169" style="font-family:sans-serif;font-size:10px;">
alertLevel
</text>
<rect x="528.0" y="64.0" width="39.0" height="15.0" style="fill:orange; stroke:rgb(0,0,0);" rx="1"/>
<text x="530" y="73" style="font-family:sans-serif;font-size:10px;">
section
</text>
<rect x="332.25" y="160.0" width="25.0" height="15.0" style="fill:orange; stroke:rgb(0,0,0);" rx="1"/>
<text x="334" y="169" style="font-family:sans-serif;font-size:10px;">
type
</text>
<rect x="10.75" y="64.0" width="31.0" height="15.0" style="fill:orange; stroke:rgb(0,0,0);" rx="1"/>
<text x="12" y="73" style="font-family:sans-serif;font-size:10px;">
agent
</text>
<rect x="337.25" y="192.0" width="15.0" height="15.0" style="fill:orange; stroke:rgb(0,0,0);" rx="1"/>
<text x="339" y="201" style="font-family:sans-serif;font-size:10px;">
int
</text>
<rect x="1052.5" y="128.0" width="8.0" height="15.0" style="fill:orange; stroke:rgb(0,0,0);" rx="1"/>
<text x="1054" y="137" style="font-family:sans-serif;font-size:10px;">
}
</text>
<rect x="417.25" y="160.0" width="7.0" height="15.0" style="fill:orange; stroke:rgb(0,0,0);" rx="1"/>
<text x="419" y="169" style="font-family:sans-serif;font-size:10px;">
;
</text>
<rect x="446.625" y="32.0" width="53.0" height="15.0" style="fill:orange; stroke:rgb(0,0,0);" rx="1"/>
<text x="448" y="41" style="font-family:sans-serif;font-size:10px;">
agentDecl
</text>
<rect x="659.75" y="128.0" width="8.0" height="15.0" style="fill:orange; stroke:rgb(0,0,0);" rx="1"/>
<text x="661" y="137" style="font-family:sans-serif;font-size:10px;">
}
</text>
<rect x="923.25" y="160.0" width="10.0" height="15.0" style="fill:orange; stroke:rgb(0,0,0);" rx="1"/>
<text x="925" y="169" style="font-family:sans-serif;font-size:10px;">
if
</text>
<rect x="504.625" y="32.0" width="39.0" height="15.0" style="fill:orange; stroke:rgb(0,0,0);" rx="1"/>
<text x="506" y="41" style="font-family:sans-serif;font-size:10px;">
&lt;EOF&gt;
</text>
<rect x="309.25" y="96.0" width="63.0" height="15.0" style="fill:orange; stroke:rgb(0,0,0);" rx="1"/>
<text x="311" y="105" style="font-family:sans-serif;font-size:10px;">
stateSection
</text>
<rect x="328.75" y="128.0" width="49.0" height="15.0" style="fill:orange; stroke:rgb(0,0,0);" rx="1"/>
<text x="330" y="137" style="font-family:sans-serif;font-size:10px;">
stateDecl
</text>
<rect x="1026.25" y="160.0" width="16.0" height="15.0" style="fill:orange; stroke:rgb(0,0,0);" rx="1"/>
<text x="1028" y="169" style="font-family:sans-serif;font-size:10px;">
do
</text>
<rect x="126.25" y="192.0" width="15.0" height="15.0" style="fill:orange; stroke:rgb(0,0,0);" rx="1"/>
<text x="128" y="201" style="font-family:sans-serif;font-size:10px;">
int
</text>
<rect x="958.25" y="224.0" width="11.0" height="15.0" style="fill:orange; stroke:rgb(0,0,0);" rx="1"/>
<text x="960" y="233" style="font-family:sans-serif;font-size:10px;">
&gt;
</text>
<rect x="68.0" y="128.0" width="8.0" height="15.0" style="fill:orange; stroke:rgb(0,0,0);" rx="1"/>
<text x="70" y="137" style="font-family:sans-serif;font-size:10px;">
{
</text>
<rect x="533.25" y="160.0" width="8.0" height="15.0" style="fill:orange; stroke:rgb(0,0,0);" rx="1"/>
<text x="535" y="169" style="font-family:sans-serif;font-size:10px;">
)
</text>
<rect x="476.125" y="0.0" width="45.0" height="15.0" style="fill:orange; stroke:rgb(0,0,0);" rx="1"/>
<text x="478" y="9" style="font-family:sans-serif;font-size:10px;">
program
</text>
<rect x="856.25" y="160.0" width="8.0" height="15.0" style="fill:orange; stroke:rgb(0,0,0);" rx="1"/>
<text x="858" y="169" style="font-family:sans-serif;font-size:10px;">
(
</text>
<rect x="176.5" y="128.0" width="77.0" height="15.0" style="fill:orange; stroke:rgb(0,0,0);" rx="1"/>
<text x="178" y="137" style="font-family:sans-serif;font-size:10px;">
perceptionDecl
</text>
<rect x="471.75" y="160.0" width="39.0" height="15.0" style="fill:orange; stroke:rgb(0,0,0);" rx="1"/>
<text x="473" y="169" style="font-family:sans-serif;font-size:10px;">
restock
</text>
<rect x="639.25" y="160.0" width="8.0" height="15.0" style="fill:orange; stroke:rgb(0,0,0);" rx="1"/>
<text x="641" y="169" style="font-family:sans-serif;font-size:10px;">
(
</text>
<rect x="700.0" y="128.0" width="45.0" height="15.0" style="fill:orange; stroke:rgb(0,0,0);" rx="1"/>
<text x="702" y="137" style="font-family:sans-serif;font-size:10px;">
behavior
</text>
<rect x="803.25" y="256.0" width="16.0" height="15.0" style="fill:orange; stroke:rgb(0,0,0);" rx="1"/>
<text x="805" y="265" style="font-family:sans-serif;font-size:10px;">
10
</text>
<rect x="796.75" y="224.0" width="29.0" height="15.0" style="fill:orange; stroke:rgb(0,0,0);" rx="1"/>
<text x="798" y="233" style="font-family:sans-serif;font-size:10px;">
literal
</text>
<rect x="381.25" y="160.0" width="29.0" height="15.0" style="fill:orange; stroke:rgb(0,0,0);" rx="1"/>
<text x="383" y="169" style="font-family:sans-serif;font-size:10px;">
literal
</text>
<rect x="279.25" y="128.0" width="27.0" height="15.0" style="fill:orange; stroke:rgb(0,0,0);" rx="1"/>
<text x="281" y="137" style="font-family:sans-serif;font-size:10px;">
state
</text>
<rect x="1086.25" y="160.0" width="8.0" height="15.0" style="fill:orange; stroke:rgb(0,0,0);" rx="1"/>
<text x="1088" y="169" style="font-family:sans-serif;font-size:10px;">
(
</text>
<rect x="510.0" y="96.0" width="75.0" height="15.0" style="fill:orange; stroke:rgb(0,0,0);" rx="1"/>
<text x="512" y="105" style="font-family:sans-serif;font-size:10px;">
actionsSection
</text>
<rect x="1116.25" y="160.0" width="7.0" height="15.0" style="fill:orange; stroke:rgb(0,0,0);" rx="1"/>
<text x="1118" y="169" style="font-family:sans-serif;font-size:10px;">
;
</text>
<rect x="718.25" y="224.0" width="11.0" height="15.0" style="fill:orange; stroke:rgb(0,0,0);" rx="1"/>
<text x="720" y="233" style="font-family:sans-serif;font-size:10px;">
&lt;
</text>
<rect x="214.25" y="160.0" width="25.0" height="15.0" style="fill:orange; stroke:rgb(0,0,0);" rx="1"/>
<text x="216" y="169" style="font-family:sans-serif;font-size:10px;">
type
</text>
<rect x="886.25" y="160.0" width="7.0" height="15.0" style="fill:orange; stroke:rgb(0,0,0);" rx="1"/>
<text x="888" y="169" style="font-family:sans-serif;font-size:10px;">
;
</text>
<rect x="98.75" y="96.0" width="97.0" height="15.0" style="fill:orange; stroke:rgb(0,0,0);" rx="1"/>
<text x="100" y="105" style="font-family:sans-serif;font-size:10px;">
perceptionsSection
</text>
<rect x="1043.25" y="256.0" width="16.0" height="15.0" style="fill:orange; stroke:rgb(0,0,0);" rx="1"/>
<text x="1045" y="265" style="font-family:sans-serif;font-size:10px;">
22
</text>
<rect x="82.5" y="128.0" width="77.0" height="15.0" style="fill:orange; stroke:rgb(0,0,0);" rx="1"/>
<text x="84" y="137" style="font-family:sans-serif;font-size:10px;">
perceptionDecl
</text>
<rect x="121.25" y="160.0" width="25.0" height="15.0" style="fill:orange; stroke:rgb(0,0,0);" rx="1"/>
<text x="123" y="169" style="font-family:sans-serif;font-size:10px;">
type
</text>
<rect x="153.25" y="160.0" width="7.0" height="15.0" style="fill:orange; stroke:rgb(0,0,0);" rx="1"/>
<text x="155" y="169" style="font-family:sans-serif;font-size:10px;">
;
</text>
<rect x="767.0" y="128.0" width="44.0" height="15.0" style="fill:orange; stroke:rgb(0,0,0);" rx="1"/>
<text x="769" y="137" style="font-family:sans-serif;font-size:10px;">
ruleDecl
</text>
<rect x="752.5" y="128.0" width="8.0" height="15.0" style="fill:orange; stroke:rgb(0,0,0);" rx="1"/>
<text x="754" y="137" style="font-family:sans-serif;font-size:10px;">
{
</text>
<rect x="786.25" y="160.0" width="16.0" height="15.0" style="fill:orange; stroke:rgb(0,0,0);" rx="1"/>
<text x="788" y="169" style="font-family:sans-serif;font-size:10px;">
do
</text>
<rect x="246.25" y="160.0" width="7.0" height="15.0" style="fill:orange; stroke:rgb(0,0,0);" rx="1"/>
<text x="248" y="169" style="font-family:sans-serif;font-size:10px;">
;
</text>
<rect x="1002.0" y="128.0" width="44.0" height="15.0" style="fill:orange; stroke:rgb(0,0,0);" rx="1"/>
<text x="1004" y="137" style="font-family:sans-serif;font-size:10px;">
ruleDecl
</text>
<rect x="313.75" y="128.0" width="8.0" height="15.0" style="fill:orange; stroke:rgb(0,0,0);" rx="1"/>
<text x="315" y="137" style="font-family:sans-serif;font-size:10px;">
{
</text>
<rect x="200.25" y="160.0" width="7.0" height="15.0" style="fill:orange; stroke:rgb(0,0,0);" rx="1"/>
<text x="202" y="169" style="font-family:sans-serif;font-size:10px;">
:
</text>
<rect x="669.25" y="160.0" width="7.0" height="15.0" style="fill:orange; stroke:rgb(0,0,0);" rx="1"/>
<text x="671" y="169" style="font-family:sans-serif;font-size:10px;">
;
</text>
<rect x="219.25" y="192.0" width="15.0" height="15.0" style="fill:orange; stroke:rgb(0,0,0);" rx="1"/>
<text x="221" y="201" style="font-family:sans-serif;font-size:10px;">
int
</text>
<rect x="654.25" y="160.0" width="8.0" height="15.0" style="fill:orange; stroke:rgb(0,0,0);" rx="1"/>
<text x="656" y="169" style="font-family:sans-serif;font-size:10px;">
)
</text>
<rect x="870.0" y="64.0" width="39.0" height="15.0" style="fill:orange; stroke:rgb(0,0,0);" rx="1"/>
<text x="872" y="73" style="font-family:sans-serif;font-size:10px;">
section
</text>
<rect x="0.0" y="128.0" width="61.0" height="15.0" style="fill:orange; stroke:rgb(0,0,0);" rx="1"/>
<text x="2" y="137" style="font-family:sans-serif;font-size:10px;">
perceptions
</text>
<rect x="70.75" y="160.0" width="29.0" height="15.0" style="fill:orange; stroke:rgb(0,0,0);" rx="1"/>
<text x="72" y="169" style="font-family:sans-serif;font-size:10px;">
stock
</text>
<rect x="548.25" y="160.0" width="7.0" height="15.0" style="fill:orange; stroke:rgb(0,0,0);" rx="1"/>
<text x="550" y="169" style="font-family:sans-serif;font-size:10px;">
;
</text>
<rect x="112.75" y="64.0" width="8.0" height="15.0" style="fill:orange; stroke:rgb(0,0,0);" rx="1"/>
<text x="114" y="73" style="font-family:sans-serif;font-size:10px;">
{
</text>
<rect x="411.75" y="128.0" width="39.0" height="15.0" style="fill:orange; stroke:rgb(0,0,0);" rx="1"/>
<text x="413" y="137" style="font-family:sans-serif;font-size:10px;">
actions
</text>
<rect x="863.25" y="224.0" width="26.0" height="15.0" style="fill:orange; stroke:rgb(0,0,0);" rx="1"/>
<text x="865" y="233" style="font-family:sans-serif;font-size:10px;">
hora
</text>
<rect x="699.75" y="160.0" width="48.0" height="15.0" style="fill:orange; stroke:rgb(0,0,0);" rx="1"/>
<text x="701" y="169" style="font-family:sans-serif;font-size:10px;">
condition
</text>
<rect x="472.25" y="128.0" width="55.0" height="15.0" style="fill:orange; stroke:rgb(0,0,0);" rx="1"/>
<text x="474" y="137" style="font-family:sans-serif;font-size:10px;">
actionDecl
</text>
</svg>